<?xml version="1.0" encoding="UTF-8"?>
<svg width="547px" height="549px" viewBox="0 0 547 549" version="1.1" xmlns="http://www.w3.org/2000/svg" xmlns:xlink="http://www.w3.org/1999/xlink">
    <!-- Generator: Sketch 53.2 (72643) - https://sketchapp.com -->
    <title>property-concierge</title>
    <desc>Created with Sketch.</desc>
    <g id="property-concierge" stroke="none" stroke-width="1" fill="none" fill-rule="evenodd">
        <g id="Image" transform="translate(142.000000, 0.000000)">
            <g id="Web" transform="translate(0.226875, 0.226875)">
                <rect id="Container" fill="#F2F2F2" x="0" y="0" width="404.29125" height="353.244375" rx="8.1675"></rect>
                <path d="M8.1675,0 L396.12375,0 C400.634536,3.12224422e-14 404.29125,3.65671431 404.29125,8.1675 L404.29125,27.5653125 L0,27.5653125 L0,8.1675 C-5.52411926e-16,3.65671431 3.65671431,-9.4773895e-16 8.1675,-1.77635684e-15 Z" id="Header" fill="#C5CFD6"></path>
                <g id="Buttons" transform="translate(9.188438, 10.209375)" fill="#F2F2F2">
                    <circle id="buttons" cx="4.08375" cy="4.08375" r="4.08375"></circle>
                    <circle id="buttons" cx="16.335" cy="4.08375" r="4.08375"></circle>
                    <circle id="buttons" cx="28.58625" cy="4.08375" r="4.08375"></circle>
                </g>
                <g id="Content" transform="translate(14.293125, 56.151563)">
                    <g id="nav">
                        <rect id="Background" fill="#487BB3" opacity="0.75109282" x="0" y="0" width="71.465625" height="264.422813" rx="8.1675"></rect>
                        <rect id="Label" fill="#FFFFFF" x="6.125625" y="54.1096875" width="58.2353939" height="7.19760938" rx="3.0628125"></rect>
                        <rect id="Label" fill="#FFFFFF" x="6.125625" y="74.5284375" width="58.2353939" height="7.19760938" rx="3.0628125"></rect>
                        <rect id="Label" fill="#FFFFFF" x="6.125625" y="94.9471875" width="58.2353939" height="7.19760938" rx="3.0628125"></rect>
                        <rect id="Label" fill="#FFFFFF" x="6.125625" y="115.365938" width="58.2353939" height="7.19760938" rx="3.0628125"></rect>
                        <rect id="Label" fill="#FFFFFF" x="6.125625" y="135.784688" width="58.2353939" height="7.19760938" rx="3.0628125"></rect>
                        <rect id="Label" fill="#FFFFFF" x="6.125625" y="156.203438" width="58.2353939" height="7.19760938" rx="3.0628125"></rect>
                        <rect id="Label" fill="#FFFFFF" x="6.125625" y="176.622188" width="58.2353939" height="7.19760938" rx="3.0628125"></rect>
                        <rect id="Label" fill="#FFFFFF" x="6.125625" y="197.040938" width="58.2353939" height="7.19760938" rx="3.0628125"></rect>
                        <rect id="Label" fill="#FFFFFF" x="6.125625" y="217.459688" width="58.2353939" height="7.19760938" rx="3.0628125"></rect>
                        <g id="ziprent/logo/alt/white" transform="translate(19.397813, 10.209375)" fill="#FFFFFF">
                            <g id="logo/alt/white">
                                <polygon id="Shape" fill-rule="nonzero" points="10.7896754 31.5929651 25.8326333 31.5929651 25.8326333 26.2467085 14.3851788 26.2467085 9.25629723 21.0032685 19.9522961 10.4135625 10.7896754 10.4135625 0.108907588 21.0032685"></polygon>
                                <polygon id="Shape" fill-rule="nonzero" points="25.547931 0 10.5049683 0 10.5049683 5.34625662 21.9524228 5.34625662 27.0813044 10.589706 16.3853055 21.179412 25.547931 21.179412 36.2286964 10.589706"></polygon>
                            </g>
                        </g>
                    </g>
                    <g id="container" transform="translate(80.994375, 0.113438)">
                        <rect id="Container" fill="#FFFFFF" x="0" y="0" width="292.215" height="264.53625" rx="4.08375"></rect>
                        <g id="Text-Stuff" transform="translate(21.326250, 23.595000)">
                            <rect id="Label" fill="#DDE3E9" x="24.5025" y="5.445" width="231.86625" height="10.0115942" rx="3.0628125"></rect>
                            <rect id="Label" fill="#DDE3E9" x="24.5025" y="33.8466856" width="231.86625" height="10.0115942" rx="3.0628125"></rect>
                            <rect id="Label" fill="#DDE3E9" x="24.5025" y="62.2483712" width="231.86625" height="10.0115942" rx="3.0628125"></rect>
                            <rect id="Label" fill="#DDE3E9" x="24.5025" y="90.6500567" width="231.86625" height="10.0115942" rx="3.0628125"></rect>
                            <rect id="Label" fill="#DDE3E9" x="24.5025" y="119.051742" width="231.86625" height="10.0115942" rx="3.0628125"></rect>
                            <rect id="Label" fill="#DDE3E9" x="24.5025" y="147.453428" width="231.86625" height="10.0115942" rx="3.0628125"></rect>
                            <rect id="Label" fill="#DDE3E9" x="24.5025" y="175.855113" width="231.86625" height="10.0115942" rx="3.0628125"></rect>
                            <rect id="Label" fill="#DDE3E9" x="24.5025" y="204.256799" width="231.86625" height="10.0115942" rx="3.0628125"></rect>
                            <g id="Group">
                                <circle id="Oval" fill="#BCEABA" cx="9.075" cy="9.075" r="9.075"></circle>
                                <text id="Check---FontAwesome" font-family="FontAwesome" font-size="9.9825" font-weight="normal" fill="#FFFFFF">
                                    <tspan x="4.5375" y="13.08375"></tspan>
                                </text>
                            </g>
                            <g id="Group" transform="translate(0.000000, 28.586250)">
                                <circle id="Oval" fill="#BCEABA" cx="9.075" cy="9.075" r="9.075"></circle>
                                <text id="Check---FontAwesome" font-family="FontAwesome" font-size="9.9825" font-weight="normal" fill="#FFFFFF">
                                    <tspan x="4.5375" y="13.08375"></tspan>
                                </text>
                            </g>
                            <g id="Group" transform="translate(0.000000, 57.172500)">
                                <circle id="Oval" fill="#BCEABA" cx="9.075" cy="9.075" r="9.075"></circle>
                                <text id="Check---FontAwesome" font-family="FontAwesome" font-size="9.9825" font-weight="normal" fill="#FFFFFF">
                                    <tspan x="4.5375" y="13.08375"></tspan>
                                </text>
                            </g>
                            <g id="Group" transform="translate(0.000000, 85.758750)">
                                <circle id="Oval" fill="#BCEABA" cx="9.075" cy="9.075" r="9.075"></circle>
                                <text id="Check---FontAwesome" font-family="FontAwesome" font-size="9.9825" font-weight="normal" fill="#FFFFFF">
                                    <tspan x="4.5375" y="13.08375"></tspan>
                                </text>
                            </g>
                            <g id="Group" transform="translate(0.000000, 114.345000)">
                                <circle id="Oval" fill="#BCEABA" cx="9.075" cy="9.075" r="9.075"></circle>
                                <text id="Check---FontAwesome" font-family="FontAwesome" font-size="9.9825" font-weight="normal" fill="#FFFFFF">
                                    <tspan x="4.5375" y="13.08375"></tspan>
                                </text>
                            </g>
                            <g id="Group" transform="translate(0.000000, 143.385000)">
                                <circle id="Oval" fill="#BCEABA" cx="9.075" cy="9.075" r="9.075"></circle>
                                <text id="Check---FontAwesome" font-family="FontAwesome" font-size="9.9825" font-weight="normal" fill="#FFFFFF">
                                    <tspan x="4.5375" y="13.08375"></tspan>
                                </text>
                            </g>
                            <g id="Group" transform="translate(0.000000, 171.517500)">
                                <circle id="Oval" fill="#BCEABA" cx="9.075" cy="9.075" r="9.075"></circle>
                                <text id="Check---FontAwesome" font-family="FontAwesome" font-size="9.9825" font-weight="normal" fill="#FFFFFF">
                                    <tspan x="4.5375" y="13.08375"></tspan>
                                </text>
                            </g>
                            <g id="Group" transform="translate(0.000000, 200.103750)">
                                <circle id="Oval" fill="#BCEABA" cx="9.075" cy="9.075" r="9.075"></circle>
                                <text id="Check---FontAwesome" font-family="FontAwesome" font-size="9.9825" font-weight="normal" fill="#FFFFFF">
                                    <tspan x="4.5375" y="13.08375"></tspan>
                                </text>
                            </g>
                        </g>
                    </g>
                </g>
            </g>
        </g>
        <g id="A-Human/Standing" transform="translate(-39.000000, 129.000000)">
            <g id="Head/Front/Long" transform="translate(81.180000, 0.000000)">
                <path d="M94.8043924,44.8372652 C98.216943,57.4123938 102.664105,85.678342 98.126096,90.1122412 L69.416096,90.1122412 C69.4131643,90.0613027 69.4102898,90.0104938 69.4074724,89.9598139 C58.7663065,88.782209 50.49,79.760122 50.49,68.805 L50.49,48.015 C50.49,36.2596191 60.0196191,26.73 71.775,26.73 L73.755,26.73 C84.4304646,26.73 93.2703258,34.5891521 94.8043924,44.8372652 Z" id="Hair-Back" fill="#191847"></path>
                <g id="Head" stroke-width="1" transform="translate(53.460000, 30.690000)" fill="#B28B67">
                    <path d="M8.17965114,34.1452255 C3.61782071,28.7905621 0.530278446,22.2283483 1.04620857,14.8751994 C2.53274692,-6.31127037 32.0250453,-1.65051697 37.761908,9.04259359 C43.4987706,19.7357042 42.8170822,46.8596659 35.4026984,48.770823 C32.4458523,49.5329898 26.1468912,47.6659863 19.7360183,43.801863 L23.76,72.27 L0,72.27 L8.17965114,34.1452255 Z"></path>
                </g>
                <path d="M68.0624649,61.2560856 C69.1571846,73.0153116 68.7186072,86.4440923 65.456096,89.6317557 L36.746096,89.6317557 C35.1464602,61.8388499 50.606096,72.6015071 50.606096,46.4337647 C51.5699444,45.4920287 52.480703,44.5599253 53.3819067,43.7560786 L53.3499882,42.9864934 C58.3214453,32.8088311 64.6285839,27.72 72.2714042,27.72 C83.7356345,27.72 87.3542195,33.054439 90.4351941,37.5834549 C88.1313074,45.4886936 79.190526,46.6608649 71.2460832,51.5884167 C70.3096554,50.8275943 69.1155782,50.3716089 67.815,50.3716089 C64.8078095,50.3716089 62.37,52.8094185 62.37,55.8166089 C62.37,58.8237994 64.8078095,61.2616089 67.815,61.2616089 C67.8979344,61.2616089 67.9804358,61.2597548 68.0624649,61.2560856 Z" id="Hair-Front" fill="#191847"></path>
            </g>
            <g id="Bottom/Standing/Skinny-Jeans" transform="translate(0.000000, 184.691303)">
                <polygon id="Leg" fill="#2026A2" points="126.72 9.9475983e-14 162.612413 125.423186 188.799888 217.866835 207.9 217.866835 180.072064 9.9475983e-14"></polygon>
                <path d="M117.121299,0 C116.291111,64.6445645 113.460185,99.9034666 112.588521,105.776706 C111.716858,111.649946 98.5368501,149.013322 73.0484977,217.866835 L92.8349203,217.866835 C125.283543,151.813654 143.397194,114.450278 147.175874,105.776706 C150.954554,97.1031346 162.61593,61.8442325 180.18,0 L117.121299,0 Z" id="Leg" fill="#1F28CF"></path>
                <g id="Accessories/Shoe/Flat-Pointy" transform="translate(71.280000, 196.178734)" fill="#191847">
                    <path d="M0,38.61 L0.99,18.33975 L21.78,18.33975 C31.6380272,25.0965 44.5080272,30.56625 60.39,34.749 L60.39,38.61 L22.77,38.61 L9.9,36.6795 L9.9,38.61 L0,38.61 Z" id="Shoe"></path>
                </g>
                <g id="Accessories/Shoe/Flat-Pointy" transform="translate(186.120000, 196.178734)" fill="#191847">
                    <path d="M0,38.61 L0.99,18.33975 L21.78,18.33975 C31.6380272,25.0965 44.5080272,30.56625 60.39,34.749 L60.39,38.61 L22.77,38.61 L9.9,36.6795 L9.9,38.61 L0,38.61 Z" id="Shoe"></path>
                </g>
            </g>
            <g id="Body/Long-Sleeve" transform="translate(21.780000, 80.987630)">
                <path d="M190.08,64.657682 L229.168047,59.3259132 C236.987242,54.9767062 244.180523,52.0323691 250.747888,50.492902 C252.596013,50.4389422 255.536024,51.110783 251.156222,54.7620448 C246.77642,58.4133066 242.332493,62.4523646 243.112841,64.4009793 C243.893189,66.349594 247.96635,65.6245788 248.641112,68.6217138 C249.090953,70.6198039 242.480461,70.9444736 228.809637,69.595723 L197.093035,82.17 L190.08,64.657682 Z M67.290094,73.7051866 L88.9685119,73.7865444 C65.1975383,127.280013 52.8029839,155.288345 51.7848488,157.811541 C49.4940447,163.488731 54.3416942,172.134994 56.4147415,176.781432 C49.6628954,179.802682 50.3823119,168.61376 41.8650397,172.576297 C34.0908687,176.193118 28.1770762,182.746555 19.1951449,177.204428 C18.0908692,176.523056 16.880763,173.957567 19.8045326,171.952774 C27.088709,166.958102 37.5856485,158.216526 39.0039504,155.339168 C40.9380583,151.415378 50.3667729,124.20405 67.290094,73.7051866 Z" id="Skin" fill="#997659"></path>
                <path d="M122.238832,9.57258044 L139.246286,9.21967898 C146.706767,46.5306348 171.471708,68.3433536 221.552559,55.8438662 L232.544416,103.770941 C185.614182,114.058308 142.3229,98.6965929 129.28982,47.989902 C125.915967,34.8635417 122.959365,21.154496 122.238832,9.57258044 Z" id="Clothes-Back" fill="#FF4133" transform="translate(177.391624, 58.005555) rotate(5.000000) translate(-177.391624, -58.005555) "></path>
                <path d="M118.295908,0.0157801581 L144.012928,5.90562381 C144.012928,50.1379803 158.103025,78.3589544 165.33,110.88 L95.8752176,110.88 C94.8968257,122.11739 94.2960038,133.66739 93.982918,145.53 L41.9776193,145.53 C53.7623117,82.8273237 78.6358101,34.3173237 116.598115,0 L118.282383,0 L118.295908,0.0157801581 Z" id="Clothes" fill="#FF4133"></path>
                <path d="M106.833329,47.7766568 C105.043419,75.3395234 106.096116,96.3739711 109.991421,110.88 L95.8752176,110.88 C97.8134092,88.6187631 101.233318,67.5843189 106.833326,47.7766674 Z" id="Shade" fill-opacity="0.1" fill="#000000"></path>
            </g>
        </g>
    </g>
</svg>