<?xml version="1.0" encoding="UTF-8"?>
<svg width="276px" height="329px" viewBox="0 0 276 329" version="1.1" xmlns="http://www.w3.org/2000/svg" xmlns:xlink="http://www.w3.org/1999/xlink">
    <!-- Generator: Sketch 53 (72520) - https://sketchapp.com -->
    <title>human-right</title>
    <desc>Created with Sketch.</desc>
    <g id="Ziprent" stroke="none" stroke-width="1" fill="none" fill-rule="evenodd">
        <g id="Artboard" transform="translate(-567.000000, -113.000000)">
            <g id="A-Human/Sitting" transform="translate(541.000000, 89.000000)">
                <g id="Head/Front/Short-2" transform="translate(82.000000, 0.000000)">
                    <g id="Head" stroke-width="1" transform="translate(54.000000, 31.000000)" fill="#D4A181">
                        <path d="M8.26227388,34.4901268 C3.65436435,29.0813759 0.535634794,22.4528771 1.05677633,15.0254539 C2.55833022,-6.37502057 32.3485306,-1.66718886 38.1433414,9.13393292 C43.9381521,19.9350547 43.249578,47.3329958 35.7603014,49.2634576 C32.7735882,50.033323 26.4110012,48.1474609 19.935372,44.244306 L24,73 L0,73 L8.26227388,34.4901268 Z"></path>
                    </g>
                    <path d="M60.4181384,70.3075201 C57.4059021,56.9064588 48.8245327,47.7714043 50.1351137,41.781703 C51.0088343,37.7885688 53.3375617,35.3053788 57.1212959,34.3321331 C59.0782074,26.4155009 65.3896485,23.0482486 76.0556193,24.2303763 C92.0545754,26.0035679 101.819448,32.6477587 97.6024819,47.2678779 C93.7260987,47.2678779 89.0464758,45.8659867 82.57553,48.2678779 C80.5223249,49.0299883 79.0538125,51.3933595 78.1699927,55.3579915 L75.2457978,55.3579915 C72.4077436,50.6530572 69.6094038,48.9241222 66.8507787,50.1711866 C64.0921535,51.418251 63.4650732,54.4473753 64.9695377,59.2585597 L63.529076,70.3075201 L60.4181384,70.3075201 Z" id="Hair" fill="#191847"></path>
                </g>
                <g id="Bottom/Sitting/Skinny-Jeans-1" transform="translate(0.000000, 187.000000)">
                    <g id="Objects/Seat/Cube" transform="translate(10.000000, 42.000000)" stroke-width="1">
                        <g id="Seat" transform="translate(55.000000, 0.000000)">
                            <polygon id="Seat-Stuff" fill="#FF9B21" points="27.6226415 0 104.877193 0 115 124 0 124"></polygon>
                            <polygon id="Seat-Stuff" fill-opacity="0.1" fill="#000000" points="27.6226415 0 51.3828011 0 65.6037736 124 0 124"></polygon>
                        </g>
                    </g>
                    <path d="M257.953294,20.7561262 C266.190093,15.8101469 280.009488,22.164715 280,29.2384154 C279.971611,50.4029106 260.656682,150.1511 259.648224,156.456711 C258.639766,162.762321 247.83665,164.42787 247.20755,156.477375 C246.206544,143.826795 244.3468,100.033121 246.20755,79.7626522 C246.975628,71.3954284 247.802807,63.4267637 248.617148,56.3175946 C238.481902,74.6206031 222.807229,100.825998 201.593128,134.933778 L190.076573,129.672175 C199.120166,99.8760987 206.535776,78.8408618 212.323403,66.5664641 C222.233227,45.5497154 231.525307,27.551672 235.436043,21.2120072 C241.587634,11.2397104 252.295462,14.7191925 257.953294,20.7561262 Z" id="Skin" fill="#D4A181"></path>
                    <path d="M208.819223,123.340112 L213.936922,21.8299349 C217.625361,4.27739957 248.84365,12.4235349 248.830812,21.8299349 C248.801666,43.1853748 235.973522,116.956762 235.964839,123.319261 L208.819223,123.340112 Z" id="LegLower" fill="#1F28CF" transform="translate(228.825019, 67.419630) rotate(20.000000) translate(-228.825019, -67.419630) "></path>
                    <g id="Accessories/Shoe/Flat-Simple" transform="translate(215.500000, 133.000000) rotate(30.000000) translate(-215.500000, -133.000000) translate(185.000000, 113.000000)" fill="#191847">
                        <path d="M0,37 L0.99242267,21 C6.8029179,22.6994251 14.0806841,22.0327584 22.8257214,19 C32.2287535,25.660617 44.0659431,30.2086712 58.3372903,32.6441626 L58.3372863,32.6441862 C59.4261013,32.829999 60.1581292,33.8632891 59.9723163,34.9521041 C59.9602834,35.0226139 59.9444765,35.0924273 59.9249637,35.1612435 L58.5529375,40 L22.8257214,40 L1.98484534,40 L0,37 Z" id="Shoe"></path>
                    </g>
                    <g id="Accessories/Shoe/Flat-Simple" transform="translate(242.000000, 126.000000)" fill="#191847">
                        <path d="M0,37 L0.99242267,21 C6.8029179,22.6994251 14.0806841,22.0327584 22.8257214,19 C32.2287535,25.660617 44.0659431,30.2086712 58.3372903,32.6441626 L58.3372863,32.6441862 C59.4261013,32.829999 60.1581292,33.8632891 59.9723163,34.9521041 C59.9602834,35.0226139 59.9444765,35.0924273 59.9249637,35.1612435 L58.5529375,40 L22.8257214,40 L1.98484534,40 L0,37 Z" id="Shoe"></path>
                    </g>
                    <path d="M282.770373,36.4330278 C282.770373,63 270.1536,124.970293 270.145616,130.820112 L243,130.840963 C246.973277,75.5454811 248.382172,47.5998928 247.226683,47.0041979 C245.49345,46.1106556 176.175838,53.9250306 155.386358,53.9250306 C125.407825,53.9250306 113.006307,35.0203971 112,-4.40536496e-13 L171.386358,-4.40536496e-13 C183.477954,1.29386693 246.548825,14.0152568 269.972097,18.3884129 C280,20.2606358 282.770373,29.1145109 282.770373,36.4330278 Z" id="Leg-and-Butt" fill="#2B44FF"></path>
                </g>
                <g id="Body/Lab-Coat" transform="translate(22.000000, 82.000000)">
                    <path d="M190.358872,88.6100216 L220.545493,114.201672 C229.013042,117.13396 236.02085,120.535571 241.568917,124.406506 C242.849565,125.748514 244.32618,128.3882 238.68408,127.555307 C233.04198,126.722415 227.069879,126.100082 226.151873,127.980187 C225.233867,129.860292 228.504819,132.414187 226.740072,134.914152 C225.563574,136.580795 220.885448,131.868337 212.705694,120.776779 L182.108696,105.506639 L190.358872,88.6100216 Z M53.6671405,77.5359191 L71.3789189,80.1081345 C52.3668948,121.357659 42.1743233,143.172797 40.8012044,145.553548 C37.7116869,150.910237 41.3451669,160.240318 42.7655846,165.17944 C35.5871864,167.252341 37.8797238,156.161524 28.8030963,158.927786 C20.5183715,161.452702 13.6817028,167.176559 5.47644547,160.370261 C4.4676573,159.533467 3.61787693,156.797168 6.82426992,155.202852 C14.8125642,151.230829 26.541227,143.962534 28.3644086,141.283781 C30.8506424,137.630823 39.2848864,116.381535 53.6671405,77.5359191 Z" id="Skin" fill="#D4A181"></path>
                    <path d="M122.979272,9.21054221 L133.596123,4.63843187 C151.668356,40.3896079 176.923065,74.3010145 216.52753,101.346035 L208.768287,117.911928 C174.615844,101.621394 142.570612,89.4491188 127.58307,61.8321985 C122.552864,52.5632462 123.64558,20.7613641 122.979272,9.21054221 Z" id="Coat-Back" fill="#C5CFD6" transform="translate(169.753401, 61.275180) rotate(5.000000) translate(-169.753401, -61.275180) "></path>
                    <path d="M90,110 C121.438326,113.333333 146.183737,113.333333 164.236234,110 C166.472817,109.587022 166.825667,105.842388 165.788454,103.300966 C149.636353,63.7244027 138.560302,29.1916266 138.560302,1.70263734 C135.596594,3.1967882 130.409827,3.42070538 123,2.37438888 C103.086202,30.7026762 93.9325378,63.2061447 90,110 Z" id="Shirt" fill="#323337"></path>
                    <path d="M118.049397,6.01740879e-14 L126.348425,5.5067062e-14 C128.280769,11.364871 134.375512,165.262588 153.190593,215.605966 L51.3853184,215.605966 C53.5924278,169.487243 71.0028709,114.087392 88.6398091,67.7283096 C73.0444357,81.9994875 59.4517855,106.180947 47.8618586,140.272687 L28.7926212,135.377648 C42.9712244,74.2810826 72.1224478,29.374879 116.246291,0.659036861 C116.341837,0.438307691 116.436936,0.218626329 116.531583,6.10622664e-14 L117.266004,6.06181771e-14 C117.53632,-0.173493435 117.807193,-0.346385506 118.078622,-0.518676213 L118.049397,6.1284311e-14 Z" id="Coat-Front" fill="#DDE3E9"></path>
                </g>
            </g>
        </g>
    </g>
</svg>