<?xml version="1.0" encoding="UTF-8"?>
<svg width="254px" height="199px" viewBox="0 0 254 199" version="1.1" xmlns="http://www.w3.org/2000/svg" xmlns:xlink="http://www.w3.org/1999/xlink">
    <!-- Generator: Sketch 53.2 (72643) - https://sketchapp.com -->
    <title>Group</title>
    <desc>Created with Sketch.</desc>
    <defs>
        <path d="M112.009425,208.517356 C150.417895,208.517356 182.791817,182.642992 192.699053,147.350183 C194.731059,140.111514 226.243489,116.244477 226.243489,108.355374 C226.243489,62.0022126 158.295596,0.79840859 112.009425,0.79840859 C65.7232542,0.79840859 -30.7140057,188.57754 10.0670291,208.517356 C34.4244281,220.426865 50.4028054,181.669342 53.6513364,184.826171 C68.7409796,199.489854 89.3224829,208.517356 112.009425,208.517356 Z" id="path-1"></path>
    </defs>
    <g id="Ziprent" stroke="none" stroke-width="1" fill="none" fill-rule="evenodd">
        <g id="Artboard" transform="translate(-108.000000, -66.000000)">
            <g id="Group" transform="translate(108.000000, 44.000000)">
                <g id="Human" transform="translate(163.500000, 110.500000) scale(-1, 1) translate(-163.500000, -110.500000) translate(50.000000, 0.000000)">
                    <circle id="Background" fill="#8991DC" cx="108.901099" cy="135.944664" r="85"></circle>
                    <mask id="mask-2" fill="white">
                        <use xlink:href="#path-1"></use>
                    </mask>
                    <g id="Mask"></g>
                    <g id="A-Human/Standing" mask="url(#mask-2)">
                        <g transform="translate(-22.296703, 0.351779)">
                            <g id="Head/Front/Long" transform="translate(65.489744, 0.000000)">
                                <path d="M76.6375032,37.0913793 C79.3796393,47.5602824 82.8512197,70.2546394 79.2277317,73.8480758 L56.0470665,73.8480758 C56.0450329,73.8122127 56.0430334,73.7764278 56.041068,73.7407211 C47.4603129,72.8632225 40.7659974,65.6143068 40.7659974,56.80185 L40.7659974,38.9335585 C40.7659974,29.5292544 48.3896922,21.9055596 57.7939963,21.9055596 L59.7079962,21.9055596 C68.489876,21.9055596 75.719046,28.5535005 76.6375032,37.0913793 Z" id="Hair-Back" fill="#191847"></path>
                                <g id="Head" stroke-width="1" transform="translate(43.163997, 25.150828)" fill="#D4A181">
                                    <path d="M6.6043105,27.9824269 C2.92105505,23.5942152 0.428150718,18.2164014 0.844716495,12.1904065 C2.04495849,-5.1721627 25.8572572,-1.3526187 30.4892422,7.41051525 C35.1212273,16.1736492 34.5708271,38.4020652 28.5843991,39.9682816 C26.1970198,40.5928866 21.1111923,39.0628546 15.9350063,35.8961585 L19.1839988,59.2261425 L0,59.2261425 L6.6043105,27.9824269 Z"></path>
                                </g>
                                <path d="M54.9541348,50.200106 C55.8380195,59.8369345 55.4839089,70.8419832 52.8497334,73.4543121 L29.6690682,73.4543121 C28.3775105,50.6776884 40.8597342,59.4978166 40.8597342,38.053034 C41.6379524,37.2812699 42.3733056,36.5173998 43.1009441,35.8586377 L43.0751729,35.2279533 C47.0891639,26.8872355 52.181594,22.7168766 58.3524633,22.7168766 C67.6087672,22.7168766 70.5304393,27.0885141 73.0180409,30.8000976 C71.1578658,37.2785368 63.9390131,38.2391453 57.5246116,42.2773339 C56.7685329,41.6538307 55.8044262,41.2801451 54.7543298,41.2801451 C52.3263021,41.2801451 50.3579968,43.2779597 50.3579968,45.7423888 C50.3579968,48.2068179 52.3263021,50.2046324 54.7543298,50.2046324 C54.8212917,50.2046324 54.8879039,50.2031129 54.9541348,50.200106 Z" id="Hair-Front" fill="#191847"></path>
                            </g>
                            <g id="Bottom/Standing/Sprint" transform="translate(0.000000, 150.301379)">
                                <path d="M166.150135,-7.48299974 C150.75674,5.05356403 156.216329,114.4837 155.186972,115.865228 C154.729479,116.47924 130.385258,121.774771 82.1543088,131.751819 L84.2052627,140.21578 C140.59304,137.229523 170.437118,133.643617 173.737496,129.458063 C178.462692,123.465548 184.393178,90.0224625 191.528955,29.1288074 L166.150135,-7.48299974 Z" id="Leg" fill="#B28B67" transform="translate(136.841632, 66.366390) rotate(-55.000000) translate(-136.841632, -66.366390) "></path>
                                <path d="M90.233231,122.817186 L93.8501986,136.44792 C135.859025,141.115803 163.584414,135.061804 173.368179,125.775215 C179.890688,119.584156 185.835833,86.2318558 191.203611,25.7183152 L164.05304,-13.0567197 C127.417771,14.5672604 148.885499,104.506789 147.944563,106.569674 C147.003626,108.632559 124.834784,110.337934 90.233231,122.817186 Z" id="Pant" fill="#69A1AC" transform="translate(140.718421, 62.501527) rotate(-55.000000) translate(-140.718421, -62.501527) "></path>
                                <g id="Accessories/Shoe/Flat-Sneaker" transform="translate(178.406772, 150.679420) rotate(20.000000) translate(-178.406772, -150.679420) translate(154.047782, 134.587993)" fill="#E4E4E4">
                                    <path d="M2.17605405,20.0901487 C1.26435132,22.4695708 0.808499948,24.2487512 0.808499948,25.4276897 C0.808499948,26.8558922 1.05138482,28.939995 1.53715455,31.679998 C3.22848677,31.679998 18.4287742,31.679998 47.1380168,31.679998 C48.3230215,27.8423679 47.6389681,25.770555 45.0858564,25.4645591 C42.5327447,25.1585632 40.4118314,24.8822734 38.7231166,24.6356897 L17.5042037,15.3692435 C17.1033512,15.1941884 16.6364858,15.3772335 16.4614307,15.778086 C16.4600138,15.7813304 16.4586188,15.7845841 16.4572456,15.7878472 L15.0892068,19.0386452 C12.7256931,20.1188992 10.8050929,20.6590262 9.3274061,20.6590262 C8.11793685,20.6590262 6.44423974,20.1769885 4.30631477,19.2129131 L4.30630424,19.2129364 C3.50883159,18.8533243 2.57082904,19.2082804 2.21121691,20.005753 C2.19868633,20.0335407 2.1869605,20.0616843 2.17605405,20.0901487 Z" id="shoe"></path>
                                </g>
                                <polygon id="Leg" fill="#997659" points="103.825203 0 62.4980106 99.9494153 21.8798124 184.448221 31.46296 184.448221 136.309464 0"></polygon>
                                <g id="Accessories/Shoe/Flat-Sneaker" transform="translate(19.167730, 160.109704)" fill="#E4E4E4">
                                    <path d="M2.17605405,20.0901487 C1.26435132,22.4695708 0.808499948,24.2487512 0.808499948,25.4276897 C0.808499948,26.8558922 1.05138482,28.939995 1.53715455,31.679998 C3.22848677,31.679998 18.4287742,31.679998 47.1380168,31.679998 C48.3230215,27.8423679 47.6389681,25.770555 45.0858564,25.4645591 C42.5327447,25.1585632 40.4118314,24.8822734 38.7231166,24.6356897 L17.5042037,15.3692435 C17.1033512,15.1941884 16.6364858,15.3772335 16.4614307,15.778086 C16.4600138,15.7813304 16.4586188,15.7845841 16.4572456,15.7878472 L15.0892068,19.0386452 C12.7256931,20.1188992 10.8050929,20.6590262 9.3274061,20.6590262 C8.11793685,20.6590262 6.44423974,20.1769885 4.30631477,19.2129131 L4.30630424,19.2129364 C3.50883159,18.8533243 2.57082904,19.2082804 2.21121691,20.005753 C2.19868633,20.0335407 2.1869605,20.0616843 2.17605405,20.0901487 Z" id="shoe"></path>
                                </g>
                                <path d="M25.5478276,166.894565 L46.8416876,170.917422 C63.3060405,146.532461 132.210029,46.5459338 139.764697,2.84217094e-14 L92.3597647,2.84217094e-14 C67.1308852,33.6479972 41.2417561,142.10623 25.5478276,166.894565 Z" id="Pant" fill="#89C5CC"></path>
                            </g>
                            <g id="Body/Pointing-Up" transform="translate(17.570419, 65.907557)">
                                <path d="M152.380297,1.87898458 L182.547966,-7.25450201 C188.17577,-11.6729349 193.48408,-14.9034856 198.472896,-16.9461542 C199.923819,-17.2215867 202.325889,-17.0616222 199.324202,-13.6274698 C196.322515,-10.1933175 193.318328,-6.44495399 194.175361,-5.00499912 C195.032393,-3.56504424 198.155004,-4.6505394 199.058747,-2.36956381 C199.661243,-0.848913418 194.487812,0.24020823 183.538456,0.897801134 L160.082496,14.8199462 L152.380297,1.87898458 Z M149.714514,55.5214375 L175.102394,74.3236222 C181.988109,76.197514 187.740902,78.528952 192.360772,81.317936 C193.452066,82.3208368 194.770997,84.3518774 190.245138,84.0008627 C185.71928,83.649848 180.943104,83.4859173 180.318623,85.0428089 C179.694143,86.5997005 182.432947,88.4615722 181.1706,90.5622267 C180.329035,91.962663 176.353146,88.4511209 169.242931,80.0276003 L144.10227,69.5133166 L149.714514,55.5214375 Z" id="Skin" fill="#D4A181"></path>
                                <path d="M100.981236,12.5047787 C121.064611,34.0397833 145.533747,48.1165861 178.891601,60.6275033 L171.521296,75.52215 C137.123938,72.1822143 118.732664,69.5341245 104.273634,47.9779784 C100.64471,42.5678228 94.1370558,23.9652582 90.2416349,14.3038165 L100.981236,12.5047787 Z" id="Coat-Back" fill="#FF9B21" transform="translate(134.566618, 44.013464) rotate(15.000000) translate(-134.566618, -44.013464) "></path>
                                <path d="M71.6311284,91.5081022 L132.915538,91.5081022 C119.033593,48.8086406 111.942169,19.5023846 111.641265,3.58933425 C111.625924,2.77807157 110.140324,1.34851214 109.483062,1.53572567 C104.676576,2.90479806 99.533257,2.3928895 94.0531043,0 C79.5244688,23.566071 74.5002148,52.5806759 71.6311284,91.5081022 Z" id="Shirt" fill="#F2F2F2"></path>
                                <path d="M99.2827353,0.0380443874 C116.849661,0.183120746 145.350702,3.41843471 178.220377,-7.22432386 L181.465525,9.12952282 C156.622935,25.2435765 131.46773,37.7262745 109.425503,35.953657 C118.997168,77.3621528 118.555868,111.259376 97.4242818,111.259376 C87.3328981,111.259376 76.4406301,111.259376 64.7474779,111.259376 C59.5576471,76.0833255 73.197538,27.3108461 85.8427085,2.71040118 C86.3255895,1.77098429 87.3536916,-2.95763414e-13 89.7752937,-2.95763414e-13 C91.8852748,-2.95763414e-13 95.0502466,-2.95763414e-13 99.2702089,-2.95763414e-13 C99.2743849,0.0126814734 99.2785604,0.0253629361 99.2827353,0.0380443874 Z" id="Coat-Front" fill="#FF9B21"></path>
                            </g>
                        </g>
                    </g>
                </g>
                <g id="House-Image" transform="translate(0.000000, 72.000000)">
                    <rect id="Photo-Background" fill="#487BB3" x="0.568790267" y="0.810262485" width="99" height="65.34" rx="3.96"></rect>
                    <text id="home---FontAwesome" font-family="FontAwesome" font-size="59.4" font-weight="normal" fill="#FFFFFF">
                        <tspan x="22.34874" y="56.3344533"></tspan>
                    </text>
                </g>
            </g>
        </g>
    </g>
</svg>