<?xml version="1.0" encoding="UTF-8"?>
<svg width="1107px" height="1049px" viewBox="0 0 1107 1049" version="1.1" xmlns="http://www.w3.org/2000/svg" xmlns:xlink="http://www.w3.org/1999/xlink">
    <!-- Generator: Sketch 53.2 (72643) - https://sketchapp.com -->
    <title>property-concierge</title>
    <desc>Created with Sketch.</desc>
    <g id="property-concierge" stroke="none" stroke-width="1" fill="none" fill-rule="evenodd">
        <g id="Image" transform="translate(213.000000, 0.000000)">
            <g id="Web">
                <rect id="Container" fill="#F2F2F2" x="0" y="0" width="891" height="778.5" rx="18"></rect>
                <path d="M18,0 L873,0 C882.941125,-1.82615513e-15 891,8.0588745 891,18 L891,60.75 L0,60.75 L0,18 C-1.21743675e-15,8.0588745 8.0588745,1.82615513e-15 18,0 Z" id="Header" fill="#C5CFD6"></path>
                <g id="Buttons" transform="translate(20.250000, 22.500000)" fill="#F2F2F2">
                    <circle id="buttons" cx="9" cy="9" r="9"></circle>
                    <circle id="buttons" cx="36" cy="9" r="9"></circle>
                    <circle id="buttons" cx="63" cy="9" r="9"></circle>
                </g>
                <g id="Content" transform="translate(30.500000, 123.750000)">
                    <g id="nav">
                        <rect id="Background" fill="#487BB3" opacity="0.75109282" x="0.5" y="0.25" width="158" height="597" rx="18"></rect>
                        <rect id="Label" fill="#FFFFFF" x="14.5" y="122.25" width="128" height="16" rx="6.75"></rect>
                        <rect id="Label" fill="#FFFFFF" x="14.5" y="168.25" width="128" height="16" rx="6.75"></rect>
                        <rect id="Label" fill="#FFFFFF" x="14.5" y="214.25" width="128" height="16" rx="6.75"></rect>
                        <rect id="Label" fill="#FFFFFF" x="14.5" y="260.25" width="128" height="16" rx="6.75"></rect>
                        <rect id="Label" fill="#FFFFFF" x="14.5" y="306.25" width="128" height="16" rx="6.75"></rect>
                        <rect id="Label" fill="#FFFFFF" x="14.5" y="353.25" width="128" height="16" rx="6.75"></rect>
                        <rect id="Label" fill="#FFFFFF" x="14.5" y="399.25" width="128" height="16" rx="6.75"></rect>
                        <rect id="Label" fill="#FFFFFF" x="14.5" y="445.25" width="128" height="16" rx="6.75"></rect>
                        <rect id="Label" fill="#FFFFFF" x="14.5" y="491.25" width="128" height="16" rx="6.75"></rect>
                        <g id="ziprent/logo/alt/white" transform="translate(43.500000, 23.250000)" fill="#FFFFFF">
                            <g id="logo/alt/white">
                                <polygon id="Shape" fill-rule="nonzero" points="23.4147634 70.6210319 56.0596101 70.6210319 56.0596101 58.6703284 31.2173948 58.6703284 20.0871668 46.949455 43.2986419 23.2778571 23.4147634 23.2778571 0.236341254 46.949455"></polygon>
                                <polygon id="Shape" fill-rule="nonzero" points="55.4417753 0 22.7969182 0 22.7969182 11.9507035 47.6391335 11.9507035 58.7693615 23.6715978 35.5578864 47.3431956 55.4417753 47.3431956 78.6201923 23.6715978"></polygon>
                            </g>
                        </g>
                    </g>
                    <g id="Group" transform="translate(187.750000, 0.000000)">
                        <rect id="Container" fill="#FFFFFF" x="0" y="0" width="321.75" height="135" rx="9"></rect>
                        <rect id="Label" fill="#DDE3E9" x="18" y="31.5" width="225" height="15.8625" rx="6.75"></rect>
                        <rect id="Label" fill="#DDE3E9" x="18" y="60.75" width="225" height="15.8625" rx="6.75"></rect>
                        <rect id="Label" fill="#DDE3E9" x="18" y="90" width="285.75" height="15.8625" rx="6.75"></rect>
                    </g>
                    <g id="Group" transform="translate(187.500000, 303.250000)">
                        <rect id="Container" fill="#FFFFFF" x="0" y="0" width="610" height="135" rx="9"></rect>
                        <rect id="Label" fill="#DDE3E9" x="34" y="31" width="427" height="16" rx="6.75"></rect>
                        <rect id="Label" fill="#DDE3E9" x="34" y="61" width="427" height="16" rx="6.75"></rect>
                        <rect id="Label" fill="#DDE3E9" x="34" y="90" width="542" height="16" rx="6.75"></rect>
                    </g>
                    <g id="Group" transform="translate(187.500000, 462.250000)">
                        <rect id="Container" fill="#FFFFFF" x="0" y="0" width="610" height="135" rx="9"></rect>
                        <rect id="Label" fill="#DDE3E9" x="34" y="31" width="427" height="16" rx="6.75"></rect>
                        <rect id="Label" fill="#DDE3E9" x="34" y="61" width="427" height="16" rx="6.75"></rect>
                        <rect id="Label" fill="#DDE3E9" x="34" y="90" width="542" height="16" rx="6.75"></rect>
                    </g>
                </g>
                <g id="House-Image" transform="translate(590.859715, 106.249416)">
                    <rect id="Photo-Background" fill="#487BB3" x="1.29270515" y="1.84150565" width="225" height="148.5" rx="9"></rect>
                    <text id="home---FontAwesome" transform="translate(113.792705, 79.636847) rotate(-1.000000) translate(-113.792705, -79.636847) " font-family="FontAwesome" font-size="135" font-weight="normal" fill="#FFFFFF">
                        <tspan x="50.7927052" y="128.136847"></tspan>
                    </text>
                </g>
                <g id="Group-2" transform="translate(220.000000, 293.000000)">
                    <rect id="Container" fill="#FFFFFF" x="0" y="0" width="120" height="108" rx="6.125625"></rect>
                    <g id="Group" transform="translate(18.000000, 10.000000)">
                        <circle id="Oval" fill="#7D8CC4" cx="41.0763158" cy="41.0763158" r="41.0763158"></circle>
                        <text id="usd---FontAwesome" font-family="FontAwesome" font-size="44.92125" font-weight="normal" fill="#FFFFFF">
                            <tspan x="30.335094" y="57.6159211"></tspan>
                        </text>
                    </g>
                </g>
                <g id="Group-2" transform="translate(380.000000, 293.000000)">
                    <rect id="Container" fill="#FFFFFF" x="0" y="0" width="120" height="108" rx="6.125625"></rect>
                    <g id="Group" transform="translate(18.000000, 10.000000)">
                        <circle id="Oval" fill="#7D8CC4" cx="41.0763158" cy="41.0763158" r="41.0763158"></circle>
                        <text id="camera---FontAwesome" font-family="FontAwesome" font-size="44.92125" font-weight="normal" fill="#FFFFFF">
                            <tspan x="18.5381579" y="57.6159211"></tspan>
                        </text>
                    </g>
                </g>
                <g id="Group-2" transform="translate(540.000000, 293.000000)">
                    <rect id="Container" fill="#FFFFFF" x="0" y="0" width="120" height="108" rx="6.125625"></rect>
                    <g id="Group" transform="translate(18.000000, 10.000000)">
                        <circle id="Oval" fill="#7D8CC4" cx="41.0763158" cy="41.0763158" r="41.0763158"></circle>
                        <text id="calendar-check-o---FontAwesome" font-family="FontAwesome" font-size="44.92125" font-weight="normal" fill="#FFFFFF">
                            <tspan x="20.7091118" y="57.6159211"></tspan>
                        </text>
                    </g>
                </g>
                <g id="Group-2" transform="translate(700.000000, 293.000000)">
                    <rect id="Container" fill="#FFFFFF" x="0" y="0" width="120" height="108" rx="6.125625"></rect>
                    <g id="Group" transform="translate(18.000000, 10.000000)">
                        <circle id="Oval" fill="#7D8CC4" cx="41.0763158" cy="41.0763158" r="41.0763158"></circle>
                        <text id="File-Text---FontAwesome" font-family="FontAwesome" font-size="44.92125" font-weight="normal" fill="#FFFFFF">
                            <tspan x="23.9177726" y="57.6159211"></tspan>
                        </text>
                    </g>
                </g>
            </g>
        </g>
        <g id="A-Human/Standing" transform="translate(-46.000000, 197.000000)">
            <g id="Head/Front/Afro" transform="translate(164.000000, 0.000000)">
                <path d="M122,155.413718 C144.857876,155.413718 153.170995,128.048168 166.157237,113.030697 C175.448628,102.286004 191.306159,105.489888 196,90.4475524 C207.803085,52.6222475 176.212217,26 135,26 C93.7877828,26 66,49.3485049 60,84.4475524 C54,119.5466 80.7877828,155.413718 122,155.413718 Z" id="Hair-Back" fill="#191847"></path>
                <g id="Head" stroke-width="1" transform="translate(108.000000, 62.000000)" fill="#B28B67">
                    <path d="M16.5245478,68.9802535 C7.3087287,58.1627518 1.07126959,44.9057542 2.11355267,30.0509078 C5.11666044,-12.7500411 64.6970613,-3.33437772 76.2866828,18.2678658 C87.8763042,39.8701094 86.4991559,94.6659917 71.5206028,98.5269151 C65.5471765,100.066646 52.8220024,96.2949219 39.870744,88.488612 L48,146 L0,146 L16.5245478,68.9802535 Z"></path>
                </g>
                <path d="M144.759538,103.446735 C143.015547,102.52406 141.01724,102 138.893337,102 C132.092918,102 126.580089,107.372583 126.580089,114 C126.580089,116.704978 127.49845,119.200918 129.047889,121.207846 C126.13038,126.016767 124.139166,131.069363 123.486478,136.263545 C113.37407,136.263545 76.4671605,98 113.23358,62 C150,26 203.132028,77.3919196 187.166321,80.3890536 C177.986857,82.1122521 159.499696,90.8758166 144.759543,103.446731 Z" id="Hair" fill="#191847"></path>
            </g>
            <g id="Bottom/Standing/Shorts" transform="translate(0.000000, 374.000000)">
                <polygon id="Leg" fill="#997659" points="256 9.9475983e-14 331.261675 246.048342 367.720308 455.296608 396.306394 455.296608 357.781948 9.9475983e-14"></polygon>
                <path d="M229.075455,0 C234.18741,135.093764 228.171329,204.777574 227.027212,217.05143 C225.883096,229.325286 210.216393,308.909624 173.127375,459.416939 L203.587985,448.955398 C262.203719,310.917917 282.177872,239.1774 288.900653,221.05143 C295.623434,202.92546 313.478806,129.24165 342.46677,0 L229.075455,0 Z" id="Leg" fill="#B28B67"></path>
                <g id="Accessories/Shoe/Flat-Sneaker" transform="translate(168.000000, 398.000000)" fill="#E4E4E4">
                    <path d="M5.35626449,50.8038461 C3.11875483,56.7768206 2,61.2459858 2,64.2113416 C2,67.8179141 2.60082841,73.0808002 3.80248523,80 C7.98636234,80 45.5875705,80 116.60611,80 C119.537476,70.3090145 117.845321,65.0771633 111.529646,64.3044463 C105.21397,63.5317293 99.9674311,62.8340278 95.7900287,62.2113416 L43.3599853,38.8377669 C42.351127,38.3880129 41.1686881,38.8412564 40.718934,39.8501147 C40.7112399,39.8673735 40.7037909,39.8847404 40.696589,39.9022103 L37.3264262,48.0773901 C31.4797624,50.8053043 26.7287411,52.1692614 23.0733623,52.1692614 C20.1034482,52.1692614 16.0019695,50.9698064 10.7689263,48.5708963 L10.7689231,48.5709033 C8.76073925,47.6503199 6.38650426,48.5319943 5.46592088,50.5401782 C5.42624217,50.6267344 5.38966674,50.7146797 5.35626449,50.8038461 Z" id="shoe"></path>
                </g>
                <g id="Accessories/Shoe/Flat-Sneaker" transform="translate(356.000000, 398.000000)" fill="#E4E4E4">
                    <path d="M5.35626449,50.8038461 C3.11875483,56.7768206 2,61.2459858 2,64.2113416 C2,67.8179141 2.60082841,73.0808002 3.80248523,80 C7.98636234,80 45.5875705,80 116.60611,80 C119.537476,70.3090145 117.845321,65.0771633 111.529646,64.3044463 C105.21397,63.5317293 99.9674311,62.8340278 95.7900287,62.2113416 L43.3599853,38.8377669 C42.351127,38.3880129 41.1686881,38.8412564 40.718934,39.8501147 C40.7112399,39.8673735 40.7037909,39.8847404 40.696589,39.9022103 L37.3264262,48.0773901 C31.4797624,50.8053043 26.7287411,52.1692614 23.0733623,52.1692614 C20.1034482,52.1692614 16.0019695,50.9698064 10.7689263,48.5708963 L10.7689231,48.5709033 C8.76073925,47.6503199 6.38650426,48.5319943 5.46592088,50.5401782 C5.42624217,50.6267344 5.38966674,50.7146797 5.35626449,50.8038461 Z" id="shoe"></path>
                </g>
                <polygon id="Bottom" fill="#C5CFD6" points="246 0 278 125.35904 375.740636 125.35904 361.167109 0"></polygon>
                <path d="M228,-3.55271368e-15 C217.470878,31.5610922 215.470878,73.3474389 222,125.35904 L321.740636,125.35904 L349.167109,-3.55271368e-15 L228,-3.55271368e-15 Z" id="Bottom" fill="#DDE3E9"></path>
            </g>
            <g id="Body/Trench-Coat" transform="translate(44.000000, 164.000000)">
                <path d="M395.385951,180.488478 L455.759192,231.671779 C472.694289,237.536354 486.709905,244.339577 497.806041,252.081447 C500.367335,254.765462 503.320566,260.044835 492.036366,258.379049 C480.752166,256.713263 468.807965,255.468599 466.971952,259.228809 C465.13594,262.989019 471.677844,268.096809 468.14835,273.096738 C465.795354,276.430023 456.439102,267.005108 440.079594,244.821992 L378.885598,214.281713 L395.385951,180.488478 Z M108.749615,140.884472 L143.441378,149.703491 C97.0021311,227.776007 72.1680544,269.036444 68.9391483,273.484801 C61.6741097,283.493605 66.9507425,302.81115 68.7434578,312.932228 C54.0319551,315.554625 60.9105245,293.973775 42.2784086,297.57846 C25.2718772,300.868649 10.4768316,310.824398 -4.4208807,295.571008 C-6.25246689,293.695693 -7.37067511,288.075423 -0.659716207,285.574577 C16.0597298,279.344057 40.9080412,267.339059 45.0944412,262.39205 C50.8033454,255.64592 72.0217367,215.143394 108.749615,140.884472 Z" id="Skin" fill="#B28B67" transform="translate(247.172501, 227.019194) rotate(-4.000000) translate(-247.172501, -227.019194) "></path>
                <path d="M406.64091,175.355806 C414.849092,174.766527 423.777582,176.126304 433.350149,179.351664 C438.060521,180.938766 440.592431,186.043877 439.005329,190.754248 C438.083553,193.489994 435.975086,195.490902 433.446482,196.376796 C435.278135,197.713066 437.126015,199.041958 438.990317,200.363342 L422.895965,233.219247 C355.1701,199.451058 291.514267,173.991681 262.507713,118.243116 C252.772364,99.5324559 256.067503,35.9765199 255.138268,12.8551373 L276.528325,4.08288854 C306.345232,65.7165045 346.698046,124.846478 406.640911,175.355808 Z" id="Back-Arm" fill="#5C63AB"></path>
                <path d="M180,227.81949 C242.876652,234.726837 292.367475,234.726837 328.472467,227.81949 C332.945634,226.963716 332.749196,207.680802 330.67477,202.414456 C298.370567,120.403749 277.120604,60.3680649 277.120604,3.40527467 C271.193189,6.50145989 260.819654,6.96546194 246,4.79728084 C206.172403,63.4992678 187.865076,130.853081 180,227.81949 Z" id="Shirt" fill="#191847"></path>
                <path d="M168.317153,237.515626 C166.181808,235.506487 165.068628,232.494674 165.615786,229.39159 L166.657675,223.482743 C167.363734,219.478484 170.615811,216.562637 174.455532,216.106469 C175.126767,213.105932 175.705501,210.125506 176.183474,207.166903 C180.221064,182.174654 173.322629,157.668943 173.646605,133.604211 C141.486396,161.043095 112.636161,208.422385 87.0958976,275.742083 L49.3223245,264.626955 C50.7636,259.272454 52.2565079,253.983719 53.8010482,248.760748 C49.4412109,246.283923 44.3467269,234.931954 48.0132081,233.032321 C51.7998724,231.070421 55.8113965,229.689569 60.0359635,228.876828 C94.6707775,124.558252 151.309239,48.2659766 229.951348,-1.45661261e-13 L240.754576,-1.31450406e-13 L252.696849,-1.0658141e-14 C246,88.5614808 338.499284,281.9098 306.381186,447.036223 C247.015713,460.293578 162.263821,419.045531 79.7656259,452 C82.8353856,385.501823 144.326283,307.381594 168.317161,237.515607 Z" id="Coat-Front" fill="#8991DC"></path>
                <polygon id="Shade-Lapel" fill-opacity="0.1" fill="#000000" points="238.211518 2 227.893207 33.7308902 248.671993 57.5180871 229.893207 76.211013 275.324502 154 219.767173 76.3664239 238.211518 57.5180871 219.767173 36.4969165"></polygon>
                <path d="M262,184 C257.581722,184 254,180.418278 254,176 C254,171.581722 257.581722,168 262,168 C266.418278,168 270,171.581722 270,176 C270,180.418278 266.418278,184 262,184 Z M272,230 C267.581722,230 264,226.418278 264,222 C264,217.581722 267.581722,214 272,214 C276.418278,214 280,217.581722 280,222 C280,226.418278 276.418278,230 272,230 Z M274,276 C269.581722,276 266,272.418278 266,268 C266,263.581722 269.581722,260 274,260 C278.418278,260 282,263.581722 282,268 C282,272.418278 278.418278,276 274,276 Z" id="Buttons" fill-opacity="0.4" fill="#000000"></path>
            </g>
        </g>
    </g>
</svg>