<?xml version="1.0" encoding="UTF-8"?>
<svg width="500px" height="500px" viewBox="0 0 500 500" version="1.1" xmlns="http://www.w3.org/2000/svg" xmlns:xlink="http://www.w3.org/1999/xlink">
    <!-- Generator: Sketch 53.2 (72643) - https://sketchapp.com -->
    <title>scene-1</title>
    <desc>Created with Sketch.</desc>
    <g id="scene-1" stroke="none" stroke-width="1" fill="none" fill-rule="evenodd">
        <circle id="Oval" fill="#56CA8A" opacity="0.373674665" cx="133" cy="362" r="138"></circle>
        <path d="M428.797509,55.1573973 L500,184 L353,184 L424.202491,55.1573973 C424.903714,53.8885181 426.500797,53.4283416 427.769676,54.1295643 C428.202207,54.3685946 428.558479,54.7248663 428.797509,55.1573973 Z" id="Triangle" fill="#FFC44B" opacity="0.12906901"></path>
        <g id="A-Human/Sitting" transform="translate(-50.000000, 147.000000)">
            <g id="Head/Front/Short-Beard" transform="translate(82.000000, 0.000000)">
                <g id="Head" stroke-width="1" transform="translate(54.000000, 31.000000)" fill="#D4A181">
                    <path d="M8.26227388,34.4901268 C3.65436435,29.0813759 0.535634794,22.4528771 1.05677633,15.0254539 C2.55833022,-6.37502057 32.3485306,-1.66718886 38.1433414,9.13393292 C43.9381521,19.9350547 43.249578,47.3329958 35.7603014,49.2634576 C32.7735882,50.033323 26.4110012,48.1474609 19.935372,44.244306 L24,73 L0,73 L8.26227388,34.4901268 Z"></path>
                </g>
                <path d="M75.1353054,48.388929 C76.0539893,61.1861055 78.4841513,67.5846937 82.4257914,67.5846937 C88.3385979,67.5846937 93.355194,63.8310443 95.9495915,63.8310443 C97.8408192,63.8310443 97.4185661,66.1977405 96.1649615,67.9524776 C95.1306973,69.4001921 90.0939174,70.7956158 90.0939174,73.0400595 C90.0939174,75.2845031 94.0733913,73.5481008 94.0733913,74.8792364 C94.0733913,77.0810973 94.7727779,81.2209894 90.9512241,81.2209894 C87.0836843,81.2209894 75.9947625,79.8115837 74.0944216,74.0714721 C72.8679972,70.366972 72.0750257,62.6905548 71.7155071,51.0422204 C71.4808897,51.0143412 71.2421196,51 71,51 C67.6862915,51 65,53.6862915 65,57 C65,58.6822183 65.6922919,60.2027431 66.807515,61.292214 C65.4191964,63.2518162 63.8632894,65.2988831 62.0803863,67.4111902 C55.3824054,63.3926741 50.4121226,51.6289713 56.9604861,40.3282783 C58.7704744,34.7922446 62.8680346,31.8352408 67.7073518,30.4622091 C71.6274481,28.8224203 75.6968791,28.6375327 79.1320584,29.6205713 C85.8659611,30.1981637 91.8790132,32.2515132 93.5831606,33.4709469 C93.5831606,39.8461712 92.3478701,41.7376815 81.7968056,41.5709519 C79.204238,42.9401362 77.2112029,45.2978697 75.1353054,48.388929 Z" id="Hair" fill="#191847"></path>
            </g>
            <g id="Bottom/Sitting/Baggy-Pants" transform="translate(0.000000, 187.000000)">
                <g id="Objects/Seat/Cube-2" transform="translate(10.000000, 42.000000)" fill="#DDE3E9">
                    <path d="M59,0 L174,0 C182.836556,-1.623249e-15 190,7.163444 190,16 L190,108 C190,116.836556 182.836556,124 174,124 L59,124 C50.163444,124 43,116.836556 43,108 L43,16 C43,7.163444 50.163444,1.623249e-15 59,0 Z M75,28 C72.790861,28 71,29.790861 71,32 L71,92 C71,94.209139 72.790861,96 75,96 L158,96 C160.209139,96 162,94.209139 162,92 L162,32 C162,29.790861 160.209139,28 158,28 L75,28 Z" id="Seat"></path>
                </g>
                <path d="M299.158964,161 C279.443095,136.924175 266.102867,119.075435 259.13828,107.453779 C247.213216,87.5546842 237.453121,69.8481647 234.373078,63.0843539 C227.028322,46.9551796 251.281896,39.4026181 256.77103,46.9258 C265.079054,58.3124345 282.822044,94.1429674 310,154.417399 L299.158964,161 Z" id="LegLower" fill="#B28B67"></path>
                <path d="M258.757567,154 L222.065197,61.6367769 C214.217429,44.7995771 252.115758,33.7320765 257.883274,41.5677718 C270.977322,59.3572261 302.098846,129.534043 306,134.834115 L258.757567,154 Z" id="LegLower" fill="#2F3676"></path>
                <g id="Lower-Leg" stroke-width="1" transform="translate(220.172961, 98.499284) rotate(39.000000) translate(-220.172961, -98.499284) translate(192.672961, 26.499284)" fill="#B28B67">
                    <path d="M4.8104618,137.955033 C3.80382537,125.354418 1.93361965,81.7337126 3.80483649,61.543304 C4.34254917,55.7413902 4.90906557,50.1318704 5.47997786,44.8696433 C7.17693121,29.2284421 36.1790278,29.7228704 33.8758977,44.5827954 C28.1401936,81.5898816 18.0447004,133.45317 17.3211185,137.93445 C16.3069876,144.215156 5.44310141,145.874127 4.8104618,137.955033 Z" id="LegLower"></path>
                </g>
                <g id="Accessories/Shoe/Flat-Sneaker" transform="translate(189.500000, 140.000000) rotate(30.000000) translate(-189.500000, -140.000000) translate(159.000000, 120.000000)" fill="#E4E4E4">
                    <path d="M2.67813181,25.4019242 C1.55937727,28.3884109 1,30.6229931 1,32.1056708 C1,33.908957 1.3004142,36.5404001 1.90124261,40 C3.99318117,40 22.7937852,40 58.3030548,40 C59.768738,35.1545073 58.9226607,32.5385816 55.7648228,32.1522232 C52.606985,31.7658647 49.9837155,31.4170139 47.8950143,31.1056708 L21.6799926,19.4188835 C21.1755635,19.1940064 20.584344,19.4206282 20.359467,19.9250573 C20.35562,19.9336867 20.3518954,19.9423702 20.3482945,19.9511052 L18.6632131,24.038695 C15.7398812,25.4026522 13.3643706,26.0846307 11.5366811,26.0846307 C10.0517269,26.0846307 8.00099246,25.4849054 5.38447792,24.2854549 L5.38448339,24.285443 C4.38038273,23.8251478 3.19325534,24.2659892 2.73296014,25.2700899 C2.71312074,25.3133681 2.69483298,25.3573409 2.67813181,25.4019242 Z" id="shoe"></path>
                </g>
                <g id="Accessories/Shoe/Flat-Sneaker" transform="translate(288.000000, 132.000000)" fill="#E4E4E4">
                    <path d="M2.67813181,25.4019242 C1.55937727,28.3884109 1,30.6229931 1,32.1056708 C1,33.908957 1.3004142,36.5404001 1.90124261,40 C3.99318117,40 22.7937852,40 58.3030548,40 C59.768738,35.1545073 58.9226607,32.5385816 55.7648228,32.1522232 C52.606985,31.7658647 49.9837155,31.4170139 47.8950143,31.1056708 L21.6799926,19.4188835 C21.1755635,19.1940064 20.584344,19.4206282 20.359467,19.9250573 C20.35562,19.9336867 20.3518954,19.9423702 20.3482945,19.9511052 L18.6632131,24.038695 C15.7398812,25.4026522 13.3643706,26.0846307 11.5366811,26.0846307 C10.0517269,26.0846307 8.00099246,25.4849054 5.38447792,24.2854549 L5.38448339,24.285443 C4.38038273,23.8251478 3.19325534,24.2659892 2.73296014,25.2700899 C2.71312074,25.3133681 2.69483298,25.3573409 2.67813181,25.4019242 Z" id="shoe"></path>
                </g>
                <path d="M208.862091,66.2500522 C178.365272,61.2817352 157.938089,57.8844191 147.580542,56.0581041 C118.057451,50.8523866 109.448266,34.9653306 114.538476,0.302228659 L168.93427,0.302228659 C176.132679,2.38099361 206.210425,15.2374805 259.167508,38.8716893 C268.695532,43.6015333 266.921101,57.5474982 265.179547,62.1420768 C265.10852,62.3294612 249.046098,89.8530148 216.99228,144.712738 L172.494227,116.36549 L208.945659,69.5903876 C209.908306,67.6514874 209.88045,66.5380423 208.862091,66.2500522 Z" id="Leg-and-Butt" fill="#5C63AB"></path>
            </g>
            <g id="Body/Hoodie" transform="translate(22.000000, 82.000000)">
                <path d="M190.781205,92.2114854 L222.679476,115.635084 C231.330944,117.969562 238.558965,120.874047 244.363541,124.34854 C245.734683,125.597945 247.391836,128.128197 241.70538,127.690906 C236.018925,127.253615 230.01796,127.049392 229.233339,128.988954 C228.448719,130.928516 231.889854,133.24802 230.303794,135.864997 C229.246421,137.609648 224.250967,133.234999 215.31743,122.74105 L183.729774,109.642447 L190.781205,92.2114854 Z M68.3079281,93.0198914 L89.2053198,93.1020711 C76.3021447,134.755739 69.3363474,156.856914 68.3079281,159.405597 C65.9939846,165.140133 70.8906002,173.873732 72.9845874,178.567103 C66.1645409,181.61887 66.8912241,170.316929 58.2879189,174.319492 C50.4352209,177.972846 44.4616931,184.59248 35.3890352,178.994371 C34.2736052,178.306117 33.0512757,175.714714 36.0045784,173.68967 C43.3623323,168.644547 53.9653015,159.814672 55.3979297,156.908251 C57.3515741,152.944826 61.6549068,131.648706 68.3079281,93.0198914 Z" id="Skin" fill="#D4A181"></path>
                <path d="M122.731734,9.58031077 L131.216685,7.34914009 C165.5935,32.1628362 183.361709,84.0563407 224.996623,108.72736 L216.58973,121.240539 C147.889238,118.771641 125.383314,55.5469019 122.731734,9.58031077 Z" id="Coat-Back" fill="#AFB9C5" transform="translate(173.864178, 64.294840) rotate(5.000000) translate(-173.864178, -64.294840) "></path>
                <path d="M90,114 C124.671756,114 150.175573,114 166.511451,114 C170.007634,114 169.348845,108.951637 168.84345,106.404206 C163.010588,77.0037663 140.241304,45.3115155 140.241304,3.4607303 L118.1718,0 C99.917485,29.3584068 93.6048263,65.5045499 90,114 Z" id="Shirt" fill="#DDE3E9"></path>
                <path d="M90.6148413,28.8579585 C87.4095228,27.9365884 84.8712423,25.7876656 83,22.4111902 C74.933557,7.85607578 77.8467271,-0.157592785 86.4671964,-2.7917309 C95.0876658,-5.42586901 102.775319,-2.04281037e-14 116.510031,-7.10542736e-15 C117.257085,-6.21724894e-15 117.941303,0.0468325343 118.562683,0.140497603 L125.471587,0.534739944 C145.293986,67.7151944 150.760885,112.536948 141.872285,135 L81.6518141,135 C78.0838152,143.319871 74.6695413,150.319871 71.4089926,156 L55,156 C53.4556832,106.067091 65.327297,63.6864104 90.6148413,28.8579585 Z" id="Coat-Front" fill="#C5CFD6"></path>
                <path d="M94.7652287,100.497634 C96.6591508,116.344024 99.7374079,127.844812 104,135 L81.6518141,135 C85.813785,125.295103 90.1849231,113.794314 94.7652283,100.497633 Z" id="Shade" fill-opacity="0.1" fill="#000000"></path>
            </g>
        </g>
        <g id="A-Human/Standing" transform="translate(406.000000, 308.500000) scale(-1, 1) translate(-406.000000, -308.500000) translate(271.000000, 117.000000)">
            <g id="Head/Front/Long" transform="translate(73.800000, 0.000000)">
                <path d="M86.1858113,40.7611502 C89.28813,52.1930852 93.3310047,77.8894018 89.2055419,81.9202193 L63.1055419,81.9202193 C63.1028766,81.8739116 63.1002634,81.8277216 63.0977022,81.781649 C53.423915,80.7110991 45.9,72.5092018 45.9,62.55 L45.9,43.65 C45.9,32.9632901 54.5632901,24.3 65.25,24.3 L67.05,24.3 C76.7549678,24.3 84.7912052,31.4446838 86.1858113,40.7611502 Z" id="Hair-Back" fill="#191847"></path>
                <g id="Head" stroke-width="1" transform="translate(48.600000, 27.900000)" fill="#B28B67">
                    <path d="M7.43604649,31.0411141 C3.28892791,26.1732383 0.482071315,20.2075894 0.951098701,13.5229085 C2.3024972,-5.73751852 29.1136776,-1.50046997 34.3290072,8.22053963 C39.5443369,17.9415492 38.9246202,42.5996962 32.1842713,44.3371118 C29.4962294,45.0299907 23.7699011,43.3327148 17.9418348,39.8198754 L21.6,65.7 L0,65.7 L7.43604649,31.0411141 Z"></path>
                </g>
                <path d="M61.8749681,55.6873506 C62.8701678,66.377556 62.471461,78.5855384 59.5055419,81.4834142 L33.4055419,81.4834142 C31.9513274,56.2171363 46.0055419,66.0013701 46.0055419,42.2125134 C46.8817676,41.3563898 47.70973,40.509023 48.5290061,39.7782533 L48.4999893,39.0786304 C53.0194957,29.8262101 58.7532581,25.2 65.7012765,25.2 C76.1233041,25.2 79.4129268,30.04949 82.2138128,34.1667772 C80.1193703,41.3533579 71.9913872,42.4189681 64.7691666,46.8985606 C63.9178685,46.2069039 62.8323439,45.7923718 61.65,45.7923718 C58.9161905,45.7923718 56.7,48.0085622 56.7,50.7423718 C56.7,53.4761813 58.9161905,55.6923718 61.65,55.6923718 C61.7253949,55.6923718 61.8003962,55.6906862 61.8749681,55.6873506 Z" id="Hair-Front" fill="#191847"></path>
            </g>
            <g id="Bottom/Standing/Skinny-Jeans" transform="translate(0.000000, 168.300000)">
                <polygon id="Leg" fill="#2026A2" points="115.2 9.9475983e-14 147.829466 114.504218 171.636262 198.9 189 198.9 163.701877 9.9475983e-14"></polygon>
                <path d="M106.473908,0 C105.719192,59.0168019 103.145623,91.2061694 102.353201,96.5681025 C101.56078,101.930036 89.5789546,136.040668 66.4077252,198.9 L84.3953821,198.9 C113.89413,138.597212 130.361086,104.486579 133.796249,96.5681025 C137.231413,88.6496259 147.832663,56.4602584 163.8,0 L106.473908,0 Z" id="Leg" fill="#1F28CF"></path>
                <g id="Accessories/Shoe/Flat-Pointy" transform="translate(64.800000, 179.100000)" fill="#191847">
                    <path d="M0,36 L0.9,17.1 L19.8,17.1 C28.7618429,23.4 40.4618429,28.5 54.9,32.4 L54.9,36 L20.7,36 L9,34.2 L9,36 L0,36 Z" id="Shoe"></path>
                </g>
                <g id="Accessories/Shoe/Flat-Pointy" transform="translate(169.200000, 179.100000)" fill="#191847">
                    <path d="M0,36 L0.9,17.1 L19.8,17.1 C28.7618429,23.4 40.4618429,28.5 54.9,32.4 L54.9,36 L20.7,36 L9,34.2 L9,36 L0,36 Z" id="Shoe"></path>
                </g>
            </g>
            <g id="Body/Long-Sleeve" transform="translate(19.800000, 73.800000)">
                <path d="M172.8,58.7797109 L208.334588,53.9326483 C215.442948,49.9788238 221.982293,47.3021537 227.952626,45.9026382 C229.632739,45.8535838 232.305477,46.4643482 228.323838,49.7836771 C224.3422,53.103006 220.302267,56.7748769 221.011674,58.5463448 C221.721081,60.3178127 225.423955,59.658708 226.037374,62.3833762 C226.446321,64.1998217 220.436783,64.494976 208.008761,63.2688391 L179.175487,74.7 L172.8,58.7797109 Z M61.1728127,67.0047151 L80.8804653,67.0786768 C59.2704893,115.709103 48.0027127,141.171223 47.0771353,143.465037 C44.9945861,148.62612 49.4015401,156.486359 51.2861286,160.710392 C45.1480868,163.456983 45.8021017,153.285236 38.059127,156.887543 C30.9916988,160.175562 25.6155238,166.133232 17.4501317,161.094934 C16.4462447,160.475505 15.3461481,158.143243 18.0041205,156.320703 C24.6260991,151.780092 34.1687714,143.833205 35.4581367,141.217426 C37.2164166,137.650343 45.7879753,112.912773 61.1728127,67.0047151 Z" id="Skin" fill="#997659"></path>
                <path d="M111.126211,8.70234586 L126.587533,8.38152634 C133.369788,42.3005771 155.883371,62.1303214 201.411418,50.7671511 L211.404014,94.3372189 C168.740166,103.689371 129.384455,89.7241754 117.5362,43.6271837 C114.469061,31.6941288 111.781241,19.23136 111.126211,8.70234586 Z" id="Clothes-Back" fill="#FF4133" transform="translate(161.265113, 52.732323) rotate(5.000000) translate(-161.265113, -52.732323) "></path>
                <path d="M107.541735,0.0143455983 L130.920844,5.36874892 C130.920844,45.5799821 143.730023,71.2354131 150.3,100.8 L87.1592887,100.8 C86.2698415,111.015809 85.7236399,121.515809 85.4390164,132.3 L38.1614721,132.3 C48.8748288,75.297567 71.4871001,31.197567 105.998286,0 L107.529439,0 L107.541735,0.0143455983 Z" id="Clothes" fill="#FF4133"></path>
                <path d="M97.1212081,43.4333244 C95.4940171,68.4904758 96.4510146,87.612701 99.9922007,100.8 L87.1592887,100.8 C88.9212811,80.5625119 92.0302892,61.4402899 97.1212053,43.433334 Z" id="Shade" fill-opacity="0.1" fill="#000000"></path>
            </g>
        </g>
    </g>
</svg>